<?xml version="1.0" encoding="utf-8"?>
<!-- Generator: Adobe Illustrator 27.1.1, SVG Export Plug-In . SVG Version: 6.00 Build 0)  -->
<svg version="1.1" id="レイヤー_1" xmlns="http://www.w3.org/2000/svg" xmlns:xlink="http://www.w3.org/1999/xlink" x="0px"
	 y="0px" viewBox="0 0 1987.6 494" style="enable-background:new 0 0 1987.6 494;" xml:space="preserve">
<path d="M373,383.2V225.6c0-53.4-22.4-83.3-66.6-83.3c-46.8,0-67.1,25.9-67.1,82.3v158.6h-52.9V219.5c0-55.4-25.9-77.2-64-77.2
	c-46.8,0-69.6,27.4-69.6,82.8v158.1H0V101.6h48.8v30.5h1C72.7,105.2,94,94,130.6,94c36.6,0,73.2,17.8,87.4,47.3
	c20.3-32,48.3-47.3,93-47.3c73.2,0,114.9,45.7,114.9,118.4v170.8H373z M571.7,205.3v-52.9H589c29.5,0,55.9-16.3,55.9-52.3
	c0-28.5-21.9-51.8-50.3-51.8s-46.8,19.8-50.3,52.9h-52.9c0-14.7,6.1-41.7,20.8-61C530.1,16.8,562.1,0,596.6,0
	c58.4,0,101.1,43.2,101.1,104.2c0,32.5-10.2,50.8-34.6,73.2c32.5,20.8,50.8,54.4,50.8,93.5c0,69.6-50.3,119.4-122,119.4
	c-66.1,0-120.4-50.8-121.5-117.9h52.9c2.5,43.2,31,69.6,70.1,69.6c37.6,0,67.6-32,67.6-69.1c0-34.1-24.4-67.6-72.2-67.6H571.7z
	 M781.6,383.2V7.1h54.9v325.8h130.6v50.3H781.6z M1136.3,390.3c-79.3,0-149.9-67.6-149.9-146.9c0-85.9,67.6-149.4,154-149.4
	c77.8,0,150.9,61,149.9,150.4C1289.3,319.7,1226.3,390.3,1136.3,390.3z M1137.9,142.3c-52.9,0-98.6,44.7-98.6,99.6
	c0,53.4,44.2,100.1,97.6,100.1c55.4,0,100.6-43.7,100.6-100.6C1237.5,186.5,1193.2,142.3,1137.9,142.3z M1576.9,346.1
	c-21.9,29.5-56.9,44.2-97.1,44.2c-80.8,0-150.4-69.6-150.4-145.9c0-84.9,66.1-150.4,150.9-150.4c36.6,0,75.2,15.2,97.6,40.1v-32.5
	h52.9v244.4c0,91.5-56.4,147.9-152,147.9c-64.5,0-115.4-34.1-139.2-88.9h59c19.8,28,46.2,40.7,80.8,40.7c64.5,0,98.6-35.1,98.6-99.6
	H1576.9z M1578,242.4c0-66.1-50.3-100.1-99.1-100.1c-52.3,0-96.6,45.2-96.6,100.1c0,53.9,44.7,99.6,97.1,99.6
	C1540.9,342,1578,288.2,1578,242.4z M1833.6,390.3c-79.3,0-149.9-67.6-149.9-146.9c0-85.9,67.6-149.4,154-149.4
	c77.8,0,150.9,61,149.9,150.4C1986.5,319.7,1923.5,390.3,1833.6,390.3z M1835.1,142.3c-52.9,0-98.6,44.7-98.6,99.6
	c0,53.4,44.2,100.1,97.6,100.1c55.4,0,100.6-43.7,100.6-100.6C1934.7,186.5,1890.5,142.3,1835.1,142.3z"/>
</svg>
